<?xml version="1.0" encoding="utf-8"?>
<!-- Generator: Adobe Illustrator 20.1.0, SVG Export Plug-In . SVG Version: 6.00 Build 0)  -->
<svg version="1.1" id="Layer_1" xmlns="http://www.w3.org/2000/svg" xmlns:xlink="http://www.w3.org/1999/xlink" x="0px" y="0px"
	 viewBox="0 0 313 311" style="enable-background:new 0 0 313 311;" xml:space="preserve">
<style type="text/css">
	.st0{fill:#F08929;}
	.st1{fill:url(#SVGID_1_);}
	.st2{fill:#FD9431;}
	.st3{fill:#F58D2B;}
</style>
<g>
	<path class="st0" d="M158.1,53.8c-55.5,0-100.5,45-100.5,100.5s45,100.5,100.5,100.5c55.5,0,100.5-45,100.5-100.5
		S213.6,53.8,158.1,53.8z M127.1,205.4c-9,0-16.2-7.3-16.2-16.3c0-9,7.3-16.3,16.2-16.3c9,0,16.3,7.3,16.3,16.3
		C143.4,198.1,136.1,205.4,127.1,205.4z M127.1,138.6c-9,0-16.2-7.3-16.2-16.2c0-9,7.3-16.3,16.2-16.3c9,0,16.3,7.3,16.3,16.3
		C143.4,131.3,136.1,138.6,127.1,138.6z M193.8,103.2c9,0,16.2,7.3,16.2,16.3s-7.3,16.3-16.2,16.3c-9,0-16.3-7.3-16.3-16.3
		S184.7,103.2,193.8,103.2z M197.8,199.6c-9,0-16.3-7.3-16.3-16.3c0-9,7.3-16.3,16.3-16.3s16.3,7.3,16.3,16.3
		C214,192.3,206.7,199.6,197.8,199.6z"/>
	<radialGradient id="SVGID_1_" cx="159" cy="156" r="150.0127" gradientUnits="userSpaceOnUse">
		<stop  offset="0.7383" style="stop-color:#F08827"/>
		<stop  offset="0.8168" style="stop-color:#FF9A32"/>
		<stop  offset="0.8529" style="stop-color:#FFA64D"/>
		<stop  offset="0.9493" style="stop-color:#FE9932"/>
		<stop  offset="1" style="stop-color:#E3821D"/>
	</radialGradient>
	<path class="st1" d="M159,6C76.1,6,9,73.1,9,156s67.1,150,150,150c82.9,0,150-67.2,150-150S241.8,6,159,6z M200.9,203.8
		c-9.5,0-17.2-7.7-17.2-17.2c0-9.5,7.7-17.2,17.2-17.2s17.2,7.7,17.2,17.2C218.1,196.1,210.4,203.8,200.9,203.8z M179.5,119.2
		c0-9.5,7.7-17.2,17.2-17.2c9.5,0,17.1,7.7,17.1,17.2c0,9.5-7.7,17.2-17.1,17.2C187.1,136.4,179.5,128.7,179.5,119.2z M109.2,192.7
		c0-9.5,7.7-17.2,17.1-17.2c9.5,0,17.2,7.7,17.2,17.2c0,9.5-7.7,17.2-17.2,17.2C116.8,209.9,109.2,202.2,109.2,192.7z M126.3,139.4
		c-9.5,0-17.1-7.7-17.1-17.1c0-9.5,7.7-17.2,17.1-17.2c9.5,0,17.2,7.7,17.2,17.2C143.5,131.7,135.8,139.4,126.3,139.4z"/>
	<path class="st2" d="M159,49.9C100.4,49.9,52.9,97.4,52.9,156S100.4,262.1,159,262.1c58.6,0,106.1-47.5,106.1-106.1
		S217.6,49.9,159,49.9z M126.3,209.9c-9.5,0-17.1-7.7-17.1-17.2c0-9.5,7.7-17.2,17.1-17.2c9.5,0,17.2,7.7,17.2,17.2
		C143.5,202.2,135.8,209.9,126.3,209.9z M126.3,139.4c-9.5,0-17.1-7.7-17.1-17.1c0-9.5,7.7-17.2,17.1-17.2c9.5,0,17.2,7.7,17.2,17.2
		C143.5,131.7,135.8,139.4,126.3,139.4z M196.7,102c9.5,0,17.1,7.7,17.1,17.2c0,9.5-7.7,17.2-17.1,17.2c-9.5,0-17.2-7.7-17.2-17.2
		C179.5,109.7,187.1,102,196.7,102z M200.9,203.8c-9.5,0-17.2-7.7-17.2-17.2c0-9.5,7.7-17.2,17.2-17.2s17.2,7.7,17.2,17.2
		C218.1,196.1,210.4,203.8,200.9,203.8z"/>
	<path class="st3" d="M65.3,171.4c0-58.6,47.5-106.1,106.1-106.1c30,0,57,12.5,76.3,32.5c-19-28.8-51.6-47.9-88.7-47.9
		C100.4,49.9,52.9,97.4,52.9,156c0,28.6,11.4,54.5,29.8,73.6C71.7,212.9,65.3,192.9,65.3,171.4z"/>
</g>
</svg>
