<?xml version="1.0" encoding="utf-8"?>
<!-- Generator: Adobe Illustrator 20.1.0, SVG Export Plug-In . SVG Version: 6.00 Build 0)  -->
<svg version="1.1" id="Layer_1" xmlns="http://www.w3.org/2000/svg" xmlns:xlink="http://www.w3.org/1999/xlink" x="0px" y="0px"
	 viewBox="0 0 674 309.2" style="enable-background:new 0 0 674 309.2;" xml:space="preserve">
<style type="text/css">
	.st0{fill:#E83376;}
	.st1{clip-path:url(#SVGID_2_);fill:url(#SVGID_3_);}
	.st2{fill-rule:evenodd;clip-rule:evenodd;fill:#C5C6C6;}
	.st3{clip-path:url(#SVGID_5_);fill:url(#SVGID_6_);}
	.st4{fill-rule:evenodd;clip-rule:evenodd;fill:#FFFFFF;}
	.st5{fill-rule:evenodd;clip-rule:evenodd;}
</style>
<path class="st0" d="M201.7,97.5c-0.5,0.1-1-0.3-1-0.8c-0.1-0.5,0.3-1,0.8-1.1c9.2-1.4,18.3-2.8,28.7-1.3c5.3,0.8,11,2.3,16.4,4.6
	c5.1,2.1,10,4.9,14.4,8.3c4.6,3.6,8.6,7.9,11.6,12.5c2.9,4.5,4.9,9.4,5.8,14.5c0.9,5.2,0.5,10.5-0.8,15.9
	c-1.3,5.4-3.5,10.9-6.3,16.5c-2.8,5.6-6.3,11.2-10.7,17.1c-4.3,5.8-9.5,11.8-15.8,17.9c-6.5,6.4-14.2,13.1-22.6,19.3
	c-7.7,5.7-15.9,11.1-24.5,15.7c-8.3,4.5-16.8,8.3-25,11.4c-9.7,3.7-18.8,6.4-26.5,8.1c-7.1,1.6-12.8,2.4-17.9,2.3
	c-5.1-0.2-9.5-1.3-13.8-3.6c-3.9-2.1-7.7-5-11.3-7.9c-4.2-3.3-8.3-6.6-12.1-8c-3.5-1.3-6.8-1.3-10.1-0.4c-3.4,0.9-6.8,2.7-10.4,4.8
	c-2,1.2-4,2.4-6,3.6c-5.3,3.3-10.5,6.5-14.6,7.8c-2.8,0.9-5.1,1-7,0.5c-2.3-0.6-4-1.9-5.1-3.6l0,0c-1-1.6-1.6-3.4-1.7-5.3
	c-0.1-1.8,0.4-3.7,1.4-5.3c1-1.6,2.5-2.8,4.3-3.9c1.7-1.1,3.6-2,5.6-2.9c0.5-0.2,1,0,1.3,0.4c0.2,0.5,0,1-0.5,1.3
	c-1.9,0.9-3.7,1.8-5.3,2.8c-1.5,1-2.8,2-3.6,3.3c-0.8,1.2-1.1,2.7-1.1,4.2c0,1.5,0.5,3,1.4,4.3l0,0c0.9,1.3,2.2,2.4,4,2.8
	c1.6,0.4,3.6,0.3,6-0.5c3.9-1.3,9-4.4,14.2-7.6c2-1.2,4-2.5,6-3.6c3.7-2.1,7.2-4,10.9-5c3.7-1,7.4-1.1,11.3,0.4
	c4.1,1.6,8.3,4.9,12.6,8.3c3.6,2.8,7.3,5.8,11,7.8c4,2.1,8.1,3.2,12.9,3.4c4.9,0.2,10.5-0.6,17.4-2.2c7.5-1.7,16.6-4.4,26.2-8
	c8.1-3.1,16.6-6.8,24.8-11.3c8.5-4.6,16.7-9.9,24.3-15.6c8.4-6.2,16-12.8,22.4-19.2c6.2-6.1,11.3-11.9,15.6-17.7
	c4.3-5.7,7.7-11.3,10.5-16.8c2.8-5.4,4.9-10.8,6.2-16c1.2-5.2,1.6-10.2,0.7-15.1c-0.8-4.8-2.7-9.5-5.5-13.8
	c-2.9-4.5-6.7-8.6-11.2-12.1c-4.2-3.3-9-6-14-8.1c-5.3-2.2-10.8-3.7-16-4.5C219.7,94.7,210.7,96.1,201.7,97.5L201.7,97.5z"/>
<g>
	<defs>
		<path id="SVGID_1_" d="M194,89.4c-0.4,0.6-0.1,2.5,0.1,3.6c0.2,1.1,0.2,0.9,0.3,1.2c-1,0.3-2.5,0.7-3.9,1.1
			c-0.5-2.3-0.7-3.3-0.5-5.6c0.2-2.3,1.9-4.5,3.3-5.1c1.4-0.6,2.8-0.5,4.6,1.7c1.8,2.2,4.2,6.3,6.2,13.1c2,6.8,3.7,16.2,9.7,37.6
			c5.9,21.4,16.1,54.8,23.3,78.3c4.8,15.6,14.2,40.8,17.5,56.3l-1.3,0.1c-12.6-30-21.8-61.6-32.3-92.4c-7.8-22.9-12.9-37-17.3-48.3
			c-4.4-11.3-9-22.4-10.5-26.7c-1.5-4.3-1.4-4.3-1.9-5.9c1.3-0.3,2.5-0.8,3.8-1.1c0.3,1.1,0.6,2.4,1.1,3.7c1,3.2,2.6,6.9,4.1,10.5
			c1-0.3,2-0.6,2.9-0.9c-0.8-3.9-1.7-7.9-2.6-11.1c-0.9-3.3-1.9-5.9-2.7-7.6c-0.7-1.8-1.2-2.7-1.9-3C195.3,88.4,194.4,88.7,194,89.4
			"/>
	</defs>
	<clipPath id="SVGID_2_">
		<use xlink:href="#SVGID_1_"  style="overflow:visible;"/>
	</clipPath>
	<linearGradient id="SVGID_3_" gradientUnits="userSpaceOnUse" x1="244.1698" y1="230.5726" x2="174.3898" y2="62.8626">
		<stop  offset="0" style="stop-color:#878786"/>
		<stop  offset="1" style="stop-color:#575656"/>
	</linearGradient>
	<rect x="189.8" y="83.9" class="st1" width="64.7" height="187.6"/>
</g>
<path class="st2" d="M204.5,107.6c0.9,4.6,1.9,9.1,2.4,13.5c0.5,4.4,0.5,8.6,3.9,20.8c3.4,12.3,10.3,32.6,17.2,53
	c-5.9-16.4-11.7-32.9-16.2-45.4c-4.5-12.5-7.5-21.2-10.4-28.6c-2.9-7.5-5.6-13.7-6.6-16.6c-1.1-2.8-0.5-2.2,0.4-0.6
	c0.9,1.6,2.2,4.2,3.2,6c0.9,1.8,1.5,2.9,2.1,3.9c1-0.3,2-0.6,3-0.8C203.8,111.1,204.2,109.3,204.5,107.6"/>
<path class="st0" d="M500.6,238.9c-1.2,2.5-2.7,4.8-4.5,7l0.5,0.4c2.1,1.5,4.6,3,7.4,4.5c1.3-0.8,2.5-1.6,3.7-2.6
	c3.1-2.5,5.4-5.5,6.8-8.7c1.3-3,1.8-6.1,1.5-9c-0.3-2.9-1.4-5.5-3.2-7.4c-1.8-2-4.2-3.3-6.9-4l-0.3-0.1c-0.1,2.1-0.4,4.2-0.8,6.3
	C504,230.2,502.7,234.8,500.6,238.9 M494.6,244.8c1.7-2.1,3.1-4.3,4.3-6.7c2-4,3.2-8.4,4.1-13c0.4-2.1,0.6-4.2,0.7-6.3
	c-2.1-0.2-4.2-0.1-6.1,0.5c-2.5,0.8-4.7,2.3-6.4,4.3c-1.8,2-3,4.5-3.4,7.1c-0.4,2.5-0.2,5,1.2,7.6
	C490.1,240.4,491.9,242.6,494.6,244.8z M492,250.3c-2.1,1.9-4.5,3.6-7.2,5.2c4.3,0.1,8.5-0.4,12.2-1.6c1.7-0.5,3.4-1.2,4.9-1.9
	c-2.4-1.3-4.6-2.7-6.5-4l-0.6-0.5C494,248.4,493,249.3,492,250.3z M481.2,255.2c3.6-1.8,6.9-3.9,9.6-6.4c0.9-0.8,1.8-1.7,2.6-2.6
	c-2.9-2.4-4.9-4.8-6.1-7.2c-1.5-3-1.8-5.9-1.3-8.8c0.5-2.9,1.9-5.7,3.9-8c1.9-2.2,4.4-3.9,7.2-4.8c2.1-0.7,4.4-0.8,6.7-0.6
	c0.1-2.5-0.1-5-0.5-7.3c-0.7-4.1-2.1-8-4.6-11.1c-2.7-3.3-6.7-5.9-11.2-7.5c-4.7-1.7-9.9-2.3-14.7-1.7c-4.6,0.6-8.9,2.3-12.6,4.8
	c-3.7,2.6-6.8,6.1-8.8,10.3c-2.1,4.1-3.2,8.8-3.5,13.5c-0.2,4.9,0.4,9.8,2.1,14.3c1.6,4.4,4.1,8.4,7.3,11.8c3.2,3.4,7.1,6.1,11.5,8
	C472.7,253.7,476.9,254.8,481.2,255.2z M386,235.8c-0.5-0.2-0.7-0.8-0.5-1.3c0.2-0.5,0.8-0.7,1.3-0.5c5.7,2.7,11.7,5.5,17.9,8.3
	c6.1,2.8,12.2,5.5,18.1,7.8c6.5,2.6,13.1,5.1,19.6,6.8c6.4,1.8,12.8,2.9,18.7,2.8c5.7,0,11.2-1.1,16.1-3l0.7-0.3
	c-3.4-0.6-6.7-1.5-9.8-2.9c-4.7-2-8.8-4.9-12.2-8.5c-3.4-3.5-6-7.8-7.7-12.4c-1.7-4.7-2.4-9.9-2.2-15c0.3-5,1.5-10,3.7-14.3
	c2.2-4.4,5.5-8.2,9.5-11c3.9-2.7,8.5-4.6,13.4-5.2c5.1-0.6,10.6,0,15.6,1.8c4.8,1.7,9.1,4.4,12,8.1c2.7,3.4,4.3,7.5,5,12
	c0.4,2.6,0.6,5.3,0.5,8c0.2,0,0.4,0.1,0.7,0.2c3,0.8,5.8,2.3,7.8,4.6c2.1,2.3,3.3,5.3,3.6,8.5c0.3,3.2-0.2,6.6-1.7,9.9
	c-1.5,3.4-4,6.6-7.3,9.4c-0.9,0.7-1.8,1.4-2.9,2.1c2.1,1,4.4,2,6.8,2.9c5.5,2.1,11.4,3.6,16.8,4c5.7,0.4,10.8-0.4,15.5-2.1
	c4.7-1.7,9-4.3,12.8-7.4c2.5-2,4.8-4.2,7-6.4c5.1-4.9,9.9-9.5,15.4-10.7c3.7-0.8,7.6-0.2,11.4,1.3c4.6,1.8,9.2,4.9,13.1,8.2
	c2.9,2.4,5.4,5,7.8,7.3c3.4,3.4,6.5,6.5,9.7,8.4c2.6,1.5,5.4,2.4,8,2.5c2.7,0.2,5.3-0.4,7.5-1.5c2.1-1.1,3.7-2.8,4.8-4.7
	c1.1-2,1.7-4.2,1.5-6.2c-0.2-1.9-0.9-3.7-2-5.2c-1.2-1.7-2.8-2.9-4.3-3.5c-1.2-0.4-2.4-0.5-3.5-0.2c-1.5,0.3-2.8,1-3.7,1.7
	c-1.5,1.1-1.9,2.2-2.2,3.2c-0.1,0.4-0.5,0.7-0.9,0.7c-0.5,0-1-0.4-1-1l0,0c0-0.1,0-0.2,0-0.3c0.4-1.3,0.9-2.7,2.9-4.2
	c1.1-0.8,2.7-1.7,4.5-2.1c1.4-0.3,2.9-0.3,4.5,0.3c1.9,0.7,3.8,2.2,5.2,4.1c1.3,1.8,2.2,3.9,2.4,6.2c0.2,2.4-0.5,5-1.8,7.3
	c-1.3,2.2-3.2,4.2-5.6,5.5c-2.5,1.3-5.4,2-8.5,1.8c-2.9-0.2-6-1.1-8.9-2.8c-3.5-2-6.6-5.2-10.1-8.7c-2.4-2.3-4.9-4.8-7.7-7.2
	c-3.8-3.2-8.2-6.2-12.6-7.9c-3.5-1.4-7.1-2-10.3-1.2c-5,1.2-9.6,5.6-14.5,10.3c-2.3,2.2-4.6,4.4-7.2,6.5c-4,3.3-8.5,6-13.4,7.8
	c-4.9,1.8-10.3,2.6-16.3,2.2c-5.6-0.4-11.6-2-17.3-4.1c-2.8-1.1-5.5-2.2-8-3.5c-2,1.1-4.1,2-6.4,2.7c-4.5,1.4-9.7,1.9-14.9,1.6
	c-0.4,0-0.8-0.1-1.2-0.1c-1.2,0.6-2.4,1.1-3.7,1.6c-5.1,1.9-10.8,3-16.7,3.1c-6.2,0-12.7-1.1-19.3-2.9c-6.6-1.8-13.2-4.3-19.8-6.9
	c-5.9-2.4-12-5.1-18.1-7.8C397.8,241.4,391.7,238.5,386,235.8z M235.8,244.4c3.6-2.6,6.5-5.5,8.9-8.6c3.4-4.4,5.8-9.2,7.2-14.4
	c1.5-5.4,2.1-11.3,1.5-16.6c-0.6-4.8-2.1-9.3-4.8-12.6c-2.7-3.3-6.6-5.6-10.8-6.9c-4.7-1.4-9.8-1.7-14.3-0.7
	c-4.3,0.9-8,2.9-10.9,5.7c-2.8,2.8-4.8,6.5-5.7,10.8c-1,4.7-0.7,10.2,1.2,15.8c1.7,5,4.7,10,9.2,14.6c4.4,4.5,10.4,8.6,16.9,12.1
	C234.7,243.8,235.3,244.1,235.8,244.4z M197.2,94.1c0.5-0.1,1,0.2,1.2,0.7s-0.2,1-0.7,1.2c-8.4,2.3-16.8,4.5-25.1,7.8
	c-8.2,3.2-16.3,7.5-24,13.6c-8.3,6.6-16.2,15.4-22.2,25.8c-5.2,9.1-9,19.3-10.2,30.2c-1.3,11.4,0.3,23.4,3.7,34.6
	c3.6,11.8,9.4,22.6,16.4,30.5c6.8,7.7,14.7,12.7,23.1,15.7c8.4,3.1,17.3,4.2,26,4.3c8.5,0,16.9-1,24.5-2.8c8-1.9,15.2-4.7,21.1-8.2
	c1-0.6,2-1.2,2.9-1.8l-0.8-0.4c-6.7-3.6-12.8-7.8-17.3-12.4c-4.8-4.8-7.9-10.1-9.7-15.3c-2-5.9-2.3-11.8-1.3-16.8
	c1-4.7,3.2-8.7,6.3-11.8c3.1-3.1,7.2-5.3,11.9-6.2c4.8-1,10.3-0.8,15.3,0.8c4.6,1.4,8.8,3.9,11.8,7.6c3,3.7,4.6,8.4,5.2,13.6
	c0.7,5.6,0.1,11.7-1.5,17.3c-1.5,5.4-4,10.5-7.6,15.1c-2.4,3-5.2,5.8-8.6,8.4c6.8,3.4,14.1,6.3,20.9,8.6c7.3,2.4,14.1,4.1,20.7,5
	c6.7,1,13.3,1.3,20.4,1.1c7.2-0.3,15-1.1,22.7-2.5c7.4-1.4,14.8-3.3,21.8-5.6c6.5-2.2,13.2-5.3,19.8-8.6c6.6-3.3,12.9-6.9,18.6-10.1
	c0.5-0.3,1-0.1,1.3,0.4c0.3,0.5,0.1,1-0.4,1.3c-5.7,3.2-12.1,6.8-18.6,10.1c-6.6,3.4-13.4,6.5-20,8.7c-7.1,2.4-14.6,4.3-22.1,5.7
	c-7.8,1.4-15.6,2.3-23,2.5c-7.2,0.3-13.9-0.1-20.7-1.1c-6.8-1-13.6-2.7-21.1-5.1c-7.2-2.4-14.9-5.4-22.1-9.1
	c-1.2,0.9-2.5,1.7-3.9,2.5c-6,3.5-13.4,6.4-21.6,8.4c-7.8,1.9-16.3,2.9-25,2.9c-8.9-0.1-18-1.2-26.6-4.4
	c-8.7-3.2-16.9-8.3-23.9-16.2c-7.2-8.1-13.1-19.1-16.8-31.2c-3.5-11.4-5.1-23.8-3.8-35.4c1.2-11.2,5.1-21.6,10.4-30.9
	c6.1-10.6,14.2-19.6,22.6-26.3c7.9-6.3,16.1-10.6,24.5-13.9C180.3,98.6,188.7,96.3,197.2,94.1z"/>
<g>
	<defs>
		<path id="SVGID_4_" d="M334.1,235.1c4.3,2.7,7.2,7.2,8.4,11.7c1.2,4.5,0.6,9.1-0.6,13c-1.1,3.9-2.8,7.1-5.6,9.7
			c-2.8,2.5-6.7,4.4-11.8,5.2c-5,0.9-11.1,0.7-16.2-1.5c-5-2.2-8.9-6.3-10.9-10.9c-2-4.6-2.1-9.5-0.6-14.1c1.4-4.6,4.4-8.9,8.2-11.9
			c3.8-2.9,8.5-4.5,13.7-4.8C324.1,231.3,329.8,232.3,334.1,235.1"/>
	</defs>
	<clipPath id="SVGID_5_">
		<use xlink:href="#SVGID_4_"  style="overflow:visible;"/>
	</clipPath>
	<linearGradient id="SVGID_6_" gradientUnits="userSpaceOnUse" x1="319.5996" y1="241.9999" x2="319.5996" y2="265.6999">
		<stop  offset="0" style="stop-color:#E83376"/>
		<stop  offset="1" style="stop-color:#979393"/>
	</linearGradient>
	<rect x="295.5" y="231.3" class="st3" width="48.2" height="44.2"/>
</g>
<path class="st4" d="M330.1,242.1c1.7,1.4,3.3,3.2,4.2,5.5c0.8,2.3,0.8,5.3,0,8.1c-0.8,2.9-2.3,5.7-4.6,7.6c-2.3,1.9-5.5,2.9-8.9,3
	c-3.4,0.1-7-0.8-9.7-2.5c-2.7-1.7-4.4-4.3-5.2-6.9c-0.8-2.6-0.8-5.4,0.1-8c0.9-2.6,2.7-5.2,4.9-6.9c2.1-1.7,4.6-2.6,7-3
	c2.4-0.4,4.8-0.4,6.8,0.1C326.7,239.7,328.4,240.7,330.1,242.1"/>
<path class="st5" d="M327,250.6c-1.6-0.2-3,0.9-3.2,2.4c-0.2,1.5,1,2.9,2.6,3.1c1.6,0.2,3-0.9,3.2-2.4
	C329.7,252.1,328.6,250.7,327,250.6"/>
<path class="st5" d="M320.5,245c-1.7-0.2-3.2,1.1-3.4,2.9c-0.2,1.8,1,3.4,2.6,3.6c1.7,0.2,3.2-1.1,3.4-2.9
	C323.3,246.8,322.1,245.2,320.5,245"/>
<path class="st5" d="M314.1,250.9c-1.7-0.2-3.2,1-3.4,2.6c-0.2,1.6,1,3.1,2.7,3.3c1.7,0.2,3.2-1,3.4-2.6
	C317,252.6,315.8,251.1,314.1,250.9"/>
<path class="st5" d="M320.7,255c-1.7-0.2-3.3,1.1-3.5,2.9c-0.2,1.8,1,3.4,2.7,3.6c1.7,0.2,3.3-1.1,3.5-2.9
	C323.6,256.9,322.4,255.2,320.7,255"/>
<path class="st4" d="M340.2,252.5c-0.2-1.7-0.5-4.6-1.9-7.6c-1.4-2.9-4-5.8-7-7.7c-3-1.9-6.3-2.9-9.6-3.3c-3.3-0.4-6.7-0.1-10.1,1.6
	c-3.4,1.7-6.9,4.8-9.1,7.7c-2.1,3-2.9,5.8-3.4,6.5c-0.4,0.6-0.5-1,0.2-3.2c0.7-2.2,2.3-4.8,4.3-7.1c2-2.3,4.5-4.2,7.4-5.5
	c2.9-1.3,6.3-1.8,9.8-1.8c3.5,0.1,7.1,0.8,10.2,2.4c3.1,1.6,5.8,4.2,7.4,6.9s2.4,5.6,2.6,7.8c0.2,2.2-0.1,3.8-0.4,4.5
	C340.5,254.5,340.4,254.2,340.2,252.5"/>
<path class="st4" d="M333,262.2c-1.1,1.2-2.8,2.4-4.7,3.4c-1.9,0.9-4.1,1.7-6.5,1.8c-2.5,0.1-5.2-0.3-7.6-1
	c-2.3-0.7-4.3-1.6-5.9-3.1c-1.6-1.5-3-3.5-4-5.4c-1-1.9-1.5-3.6-1.6-3.2c-0.1,0.5,0.2,3.1,1.8,5.8c1.6,2.7,4.4,5.5,7.7,7
	c3.3,1.5,7.1,1.8,10.2,1.4c3.1-0.4,5.6-1.6,7.5-3c2-1.3,3.4-2.9,4.2-4.2c0.8-1.3,0.9-2.4,0.7-2.3C334.6,259.7,334.1,261,333,262.2"
	/>
<path class="st0" d="M381,230.9c0.5,0.2,0.7,0.8,0.4,1.3c-0.2,0.5-0.8,0.7-1.3,0.4l-9.7-4.7c-0.5-0.2-0.7-0.8-0.4-1.3
	c0.2-0.5,0.8-0.7,1.3-0.4L381,230.9z"/>
<path class="st0" d="M364,223.2c0.5,0.2,0.7,0.8,0.5,1.3c-0.2,0.5-0.8,0.7-1.3,0.5l-9.4-4.2c-0.5-0.2-0.7-0.8-0.5-1.3
	c0.2-0.5,0.8-0.7,1.3-0.5L364,223.2z"/>
<path class="st0" d="M349,216.5c0.5,0.3,0.6,0.9,0.3,1.3c-0.3,0.5-0.9,0.6-1.3,0.3l-11.2-6.6c-0.5-0.3-0.6-0.9-0.3-1.3
	c0.3-0.5,0.9-0.6,1.3-0.3L349,216.5z"/>
<path class="st0" d="M331.8,206.9c0.4,0.3,0.6,0.9,0.3,1.3c-0.3,0.4-0.9,0.6-1.3,0.3l-11.6-7.5c-0.4-0.3-0.6-0.9-0.3-1.3
	c0.3-0.4,0.9-0.6,1.3-0.3L331.8,206.9z"/>
<path class="st0" d="M304.2,186.6c0.4,0.4,0.4,1,0,1.4c-0.4,0.4-1,0.4-1.4,0l-6.6-6.7c-0.4-0.4-0.4-1,0-1.4c0.4-0.4,1-0.4,1.4,0
	L304.2,186.6z"/>
<path class="st0" d="M315.3,195.4c0.4,0.3,0.4,1,0.1,1.3c-0.3,0.4-1,0.4-1.3,0.1l-7.3-6.3c-0.4-0.3-0.4-1-0.1-1.3
	c0.3-0.4,1-0.4,1.3-0.1L315.3,195.4z"/>
<path class="st0" d="M294.2,177.1c0.4,0.4,0.4,1,0,1.4c-0.4,0.4-1,0.4-1.4,0l-4.9-5.1c-0.4-0.4-0.4-1,0-1.4c0.4-0.4,1-0.4,1.4,0
	L294.2,177.1z"/>
<path class="st0" d="M286.2,168.5c0.3,0.4,0.3,1-0.1,1.3c-0.4,0.3-1,0.3-1.3-0.1l-5.1-6.3c-0.3-0.4-0.3-1,0.1-1.3
	c0.4-0.3,1-0.3,1.3,0.1L286.2,168.5z"/>
<path class="st0" d="M278.9,159.2c0.3,0.4,0.2,1-0.3,1.3c-0.4,0.3-1,0.2-1.3-0.3l-4-6.1c-0.3-0.4-0.2-1,0.3-1.3
	c0.4-0.3,1-0.2,1.3,0.3L278.9,159.2z"/>
<path class="st0" d="M272.8,149.7c0.2,0.5,0.1,1-0.4,1.3s-1,0.1-1.3-0.4l-3.3-6.4c-0.2-0.5-0.1-1,0.4-1.3c0.5-0.2,1-0.1,1.3,0.4
	L272.8,149.7z"/>
<path class="st0" d="M267.6,139c0.2,0.5-0.1,1-0.6,1.2c-0.5,0.2-1-0.1-1.2-0.6l-2.3-6.1c-0.2-0.5,0.1-1,0.6-1.2
	c0.5-0.2,1,0.1,1.2,0.6L267.6,139z"/>
<path class="st0" d="M263.4,126.3c0.1,0.5-0.2,1-0.8,1.1c-0.5,0.1-1-0.2-1.1-0.8l-2-9.8c-0.1-0.5,0.2-1,0.8-1.1
	c0.5-0.1,1,0.2,1.1,0.8L263.4,126.3z"/>
<path class="st0" d="M260.7,109.9c0,0.5-0.4,1-1,0.9c-0.5,0-1-0.4-0.9-1l0.1-11.6c0-0.5,0.4-1,1-0.9c0.5,0,1,0.4,0.9,1L260.7,109.9z
	"/>
<path class="st0" d="M261.9,90.8c-0.2,0.5-0.7,0.8-1.2,0.6c-0.5-0.2-0.8-0.7-0.6-1.2l3.2-10.6c0.2-0.5,0.7-0.8,1.2-0.6
	c0.5,0.2,0.8,0.7,0.6,1.2L261.9,90.8z"/>
<path class="st0" d="M267.3,75.4c-0.3,0.4-0.9,0.6-1.3,0.3c-0.4-0.3-0.6-0.9-0.3-1.3l5.1-8.2c0.3-0.4,0.9-0.6,1.3-0.3
	c0.4,0.3,0.6,0.9,0.3,1.3L267.3,75.4z"/>
<path class="st0" d="M276.2,62.5c-0.4,0.4-1,0.4-1.4,0c-0.4-0.4-0.4-1,0-1.4l6.8-6.7c0.4-0.4,1-0.4,1.4,0c0.4,0.4,0.4,1,0,1.4
	L276.2,62.5z"/>
<path class="st0" d="M288.5,51.5c-0.5,0.3-1,0.1-1.3-0.3c-0.3-0.5-0.1-1,0.3-1.3l11.7-6.8c0.5-0.3,1-0.1,1.3,0.3
	c0.3,0.5,0.1,1-0.3,1.3L288.5,51.5z"/>
<path class="st0" d="M306.4,42.1c-0.5,0.2-1-0.1-1.2-0.6c-0.2-0.5,0.1-1,0.6-1.2l8.2-2.5c0.5-0.2,1,0.1,1.2,0.6
	c0.2,0.5-0.1,1-0.6,1.2L306.4,42.1z"/>
<path class="st0" d="M321.1,38.5c-0.5,0-1-0.4-1-0.9c0-0.5,0.4-1,0.9-1l9.7-0.5c0.5,0,1,0.4,1,0.9c0,0.5-0.4,1-0.9,1L321.1,38.5z"/>
<path class="st0" d="M337,38.5c-0.5-0.1-0.8-0.6-0.7-1.2c0.1-0.5,0.6-0.8,1.2-0.7l8.6,2.1c0.5,0.1,0.8,0.6,0.7,1.2
	c-0.1,0.5-0.6,0.8-1.2,0.7L337,38.5z"/>
<path class="st0" d="M350.2,42.5c-0.5-0.3-0.6-0.9-0.3-1.3c0.3-0.5,0.9-0.6,1.3-0.3l6.9,4c0.5,0.3,0.6,0.9,0.3,1.3s-0.9,0.6-1.3,0.3
	L350.2,42.5z"/>
<path class="st0" d="M360.9,49.5c-0.4-0.4-0.4-1,0-1.4c0.4-0.4,1-0.4,1.4,0l6.2,6.1c0.4,0.4,0.4,1,0,1.4c-0.4,0.4-1,0.4-1.4,0
	L360.9,49.5z"/>
<path class="st0" d="M370.4,59.4c-0.3-0.4-0.2-1,0.2-1.3c0.4-0.3,1-0.2,1.3,0.2l4.2,5.4c0.3,0.4,0.2,1-0.2,1.3
	c-0.4,0.3-1,0.2-1.3-0.2L370.4,59.4z"/>
<path class="st0" d="M378,69.6c-0.3-0.4-0.2-1,0.2-1.3c0.4-0.3,1-0.2,1.3,0.2l6.6,9.2c0.3,0.4,0.2,1-0.2,1.3c-0.4,0.3-1,0.2-1.3-0.2
	L378,69.6z"/>
<path class="st0" d="M381.7,78.7c-0.4,0.3-1,0.2-1.3-0.2c-0.3-0.4-0.2-1,0.2-1.3l9.1-6.3c0.4-0.3,1-0.2,1.3,0.2
	c0.3,0.4,0.2,1-0.2,1.3L381.7,78.7z"/>
<path class="st0" d="M396.2,68.5c-0.4,0.3-1,0.2-1.3-0.3c-0.3-0.4-0.2-1,0.3-1.3l7.4-4.8c0.4-0.3,1-0.2,1.3,0.3
	c0.3,0.4,0.2,1-0.3,1.3L396.2,68.5z"/>
<path class="st0" d="M409.5,60.5c-0.5,0.2-1,0-1.2-0.5c-0.2-0.5,0-1,0.5-1.2l8.1-3.4c0.5-0.2,1,0,1.2,0.5c0.2,0.5,0,1-0.5,1.2
	L409.5,60.5z"/>
<path class="st0" d="M424.6,55.3c-0.5,0.1-1-0.3-1.1-0.9c-0.1-0.5,0.3-1,0.9-1.1l10.7-1.2c0.5-0.1,1,0.3,1.1,0.9
	c0.1,0.5-0.3,1-0.9,1.1L424.6,55.3z"/>
<path class="st0" d="M445.1,54.5c-0.5-0.1-0.9-0.6-0.8-1.1s0.6-0.9,1.1-0.8l9.2,1.4c0.5,0.1,0.9,0.6,0.8,1.1
	c-0.1,0.5-0.6,0.9-1.1,0.8L445.1,54.5z"/>
<path class="st0" d="M459.1,57c-0.5-0.2-0.8-0.7-0.6-1.2c0.2-0.5,0.7-0.8,1.2-0.6l7.5,2.4c0.5,0.2,0.8,0.7,0.6,1.2
	c-0.2,0.5-0.7,0.8-1.2,0.6L459.1,57z"/>
<path class="st0" d="M472.5,61.9c-0.5-0.3-0.6-0.8-0.4-1.3c0.3-0.5,0.8-0.6,1.3-0.4l7,3.9c0.5,0.3,0.6,0.8,0.4,1.3
	c-0.3,0.5-0.8,0.6-1.3,0.4L472.5,61.9z"/>
<path class="st0" d="M484.4,69.4c-0.4-0.4-0.4-1,0-1.4c0.4-0.4,1-0.4,1.4,0l5.4,5.2c0.4,0.4,0.4,1,0,1.4c-0.4,0.4-1,0.4-1.4,0
	L484.4,69.4z"/>
<path class="st0" d="M493.5,79.6c-0.2-0.5,0-1,0.4-1.3c0.5-0.2,1,0,1.3,0.4l4.3,8.8c0.2,0.5,0,1-0.4,1.3c-0.5,0.2-1,0-1.3-0.4
	L493.5,79.6z"/>
<path class="st0" d="M499.1,93.1c-0.1-0.5,0.3-1,0.8-1.1c0.5-0.1,1,0.3,1.1,0.8l1.1,8.5c0.1,0.5-0.3,1-0.8,1.1
	c-0.5,0.1-1-0.3-1.1-0.8L499.1,93.1z"/>
<path class="st0" d="M499.9,108.5c0.1-0.5,0.6-0.9,1.1-0.8c0.5,0.1,0.9,0.6,0.8,1.1l-1.4,8c-0.1,0.5-0.6,0.9-1.1,0.8
	c-0.5-0.1-0.9-0.6-0.8-1.1L499.9,108.5z"/>
<path class="st0" d="M497.2,121.2c0.2-0.5,0.8-0.7,1.2-0.5c0.5,0.2,0.7,0.8,0.5,1.2l-3.4,8.1c-0.2,0.5-0.8,0.7-1.2,0.5
	c-0.5-0.2-0.7-0.8-0.5-1.2L497.2,121.2z"/>
<path class="st0" d="M491.3,134.2c0.3-0.4,0.9-0.6,1.3-0.3c0.4,0.3,0.6,0.9,0.3,1.3l-4.9,7.6c-0.3,0.4-0.9,0.6-1.3,0.3
	c-0.4-0.3-0.6-0.9-0.3-1.3L491.3,134.2z"/>
<path class="st0" d="M483.4,145.9c0.3-0.4,0.9-0.5,1.3-0.1c0.4,0.3,0.5,0.9,0.1,1.3l-6.1,7.6c-0.3,0.4-0.9,0.5-1.3,0.2
	c-0.4-0.3-0.5-0.9-0.1-1.3L483.4,145.9z"/>
<path class="st0" d="M474,157.3c0.4-0.4,1-0.4,1.4-0.1c0.4,0.4,0.4,1,0.1,1.4l-5.9,6.6c-0.4,0.4-1,0.4-1.4,0.1
	c-0.4-0.4-0.4-1-0.1-1.4L474,157.3z"/>
<path class="st0" d="M463.7,168.6c0.4-0.4,1-0.4,1.4,0s0.4,1,0,1.4l-6,6.2c-0.4,0.4-1,0.4-1.4,0c-0.4-0.4-0.4-1,0-1.4L463.7,168.6z"
	/>
<path class="st0" d="M453.1,179.3c0.4-0.4,1-0.3,1.4,0c0.4,0.4,0.3,1,0,1.4l-6,5.7c-0.4,0.4-1,0.3-1.4,0c-0.4-0.4-0.3-1,0-1.4
	L453.1,179.3z"/>
<path class="st0" d="M442.4,189.3c0.4-0.3,1-0.3,1.3,0.1c0.3,0.4,0.3,1-0.1,1.3l-6.7,5.8c-0.4,0.3-1,0.3-1.3-0.1
	c-0.3-0.4-0.3-1,0.1-1.3L442.4,189.3z"/>
<path class="st0" d="M431.5,198.5c0.4-0.3,1-0.3,1.3,0.2c0.3,0.4,0.3,1-0.2,1.3l-7.5,5.9c-0.4,0.3-1,0.3-1.3-0.2
	c-0.3-0.4-0.3-1,0.2-1.3L431.5,198.5z"/>
<path class="st0" d="M419,208.2c0.4-0.3,1-0.2,1.3,0.2c0.3,0.4,0.2,1-0.2,1.3l-7.4,5.3c-0.4,0.3-1,0.2-1.3-0.2
	c-0.3-0.4-0.2-1,0.2-1.3L419,208.2z"/>
<path class="st0" d="M406,217.5c0.4-0.3,1-0.2,1.3,0.3c0.3,0.4,0.2,1-0.3,1.3l-6.8,4.6c-0.4,0.3-1,0.2-1.3-0.3s-0.2-1,0.3-1.3
	L406,217.5z"/>
<path class="st0" d="M394.3,225.4c0.4-0.3,1-0.2,1.3,0.3c0.3,0.4,0.2,1-0.3,1.3l-8.1,5.5c-0.4,0.3-1,0.2-1.3-0.3s-0.2-1,0.3-1.3
	L394.3,225.4z"/>
<path class="st0" d="M292.1,261.9c-0.5,0-1-0.4-1-0.9c0-0.5,0.4-1,0.9-1c1.5,0,2.9,0,4.4,0c1.4,0,2.9,0,4.3-0.1
	c1.4,0,2.8-0.1,4.2-0.2c1.4-0.1,2.9-0.2,4.5-0.4c1.6-0.2,3.4-0.4,5.2-0.7c2-0.3,3.8-0.6,5.6-0.9c0.5-0.1,1,0.3,1.1,0.8
	c0.1,0.5-0.3,1-0.8,1.1c-2,0.3-4,0.6-5.6,0.9c-1.8,0.3-3.6,0.5-5.2,0.7c-1.6,0.2-3.2,0.3-4.6,0.4c-1.4,0.1-2.8,0.1-4.3,0.2
	c-1.4,0-2.9,0.1-4.3,0.1C295.1,261.9,293.6,261.9,292.1,261.9"/>
</svg>
